<svg width="255" height="48" viewBox="0 0 255 48" fill="none" xmlns="http://www.w3.org/2000/svg">
<path d="M251.6 8.13C253.08 8.13 254.32 9.3 254.32 10.83C254.32 12.39 253.08 13.56 251.6 13.56C250.11 13.56 248.86 12.39 248.86 10.83C248.86 9.3 250.11 8.13 251.6 8.13ZM251.6 13.16C252.86 13.16 253.83 12.16 253.83 10.83C253.83 9.53 252.86 8.53 251.6 8.53C250.33 8.53 249.36 9.53 249.36 10.83C249.35 12.16 250.33 13.16 251.6 13.16ZM250.54 9.25H251.77C252.52 9.25 252.88 9.55 252.88 10.16C252.88 10.73 252.52 10.97 252.04 11.02L252.95 12.42H252.42L251.56 11.06H251.04V12.42H250.55V9.25H250.54ZM251.03 10.66H251.55C251.98 10.66 252.39 10.64 252.39 10.14C252.39 9.72 252.03 9.65 251.69 9.65H251.04V10.66H251.03Z" fill="#4B286D"/>
<path d="M239.01 18.09C234 16.96 232.25 16.83 232.25 14.84C232.25 12.99 234.73 12.41 236.16 12.41C238.48 12.41 241.2 12.95 243.97 14.38L245.99 9.57C243.15 8.01 239.49 7.37 235.97 7.37C229.06 7.37 224.42 10.17 224.23 15.64C224.03 20.62 228.08 22.49 231.81 23.26C235.4 24 239.04 24.64 239.12 26.77C239.19 28.74 237.42 29.58 234.08 29.58C230.99 29.58 228.11 28.59 225.17 27.36L223.46 32.58C226.83 34.02 230.26 34.81 233.8 34.81C238.71 34.81 242.29 34.05 244.93 31.57C246.76 29.87 247.36 27.82 247.36 25.86C247.35 21.72 244.78 19.39 239.01 18.09Z" fill="#4B286D"/>
<path d="M204.54 8.13V24.73C204.54 26.03 204.54 26.39 204.46 26.9C204.23 28.48 202.69 29.4 200.24 29.43C198.43 29.4 197.1 28.87 196.48 27.92C196.17 27.43 196.02 26.56 196.02 25.16V8.13H188.32V26.14C188.32 28.64 188.65 29.76 189.78 31.18C191.64 33.51 195.26 34.73 200.26 34.73C200.31 34.73 200.37 34.73 200.42 34.73C200.45 34.73 200.49 34.73 200.53 34.73C207.21 34.73 210.66 32.12 211.66 29.68C212.16 28.5 212.2 27.94 212.2 25.55V8.13H204.54Z" fill="#4B286D"/>
<path d="M179.21 29.1H167.89V8.13H160.46V34.26H179.21V29.1Z" fill="#4B286D"/>
<path d="M147.25 13.21V8.13H129.14V34.26H147.25V28.96H136.48V23.17H145.44V18.09H136.48V13.21H147.25Z" fill="#4B286D"/>
<path d="M118.61 13.29V8.13H95.82V13.29H103.52V34.26H110.9V13.29H118.61Z" fill="#4B286D"/>
<path d="M99.3 0.97L56.12 9.57V12.58L56.26 12.54C84.79 5.61 99.3 1.44 99.42 1.41C99.58 1.37 99.64 1.24 99.62 1.14C99.59 1.03 99.47 0.94 99.3 0.97Z" fill="#4B286D"/>
<path d="M63.05 3.38C63.72 2.95 63.91 3.22 63.71 3.7C63.39 4.47 61.93 9.15 51.06 18.07C48.22 20.39 46.21 21.7 42.12 24.12C48.82 14.75 58.58 6.28 63.05 3.38ZM64.18 0.149999C62.08 0.269999 58.19 3.38 56.06 5.23C47.56 12.58 41.25 19.34 36.65 26.41C27.07 31.54 14.87 36.81 2.74 40.93L2.45 41.03L0.120001 47.31L1.45 46.79C9.16 43.85 22.03 38.33 33.7 32.2C33.04 33.95 32.71 35.56 32.71 37.03C32.71 38.13 32.89 39.14 33.26 40.07C33.99 41.91 35.44 43.31 37.44 44.11C40.43 45.3 44.5 45.33 49.15 43.92C61.02 40.32 75.11 29.27 78.18 27.07L78.3 27C78.42 26.91 78.43 26.78 78.38 26.69C78.31 26.59 78.17 26.56 78.06 26.63L77.91 26.72C74.62 28.69 58.63 38.18 48.23 40.97C42.94 42.39 38.9 41.61 37.38 39.48C36.85 38.75 36.6 37.83 36.6 36.76C36.6 34.67 37.58 32 39.49 29.04C41.24 28.04 42.87 27.07 44.34 26.15C54.48 20.45 66.17 9.37 66.66 2.61C66.66 2.56 66.66 2.51 66.66 2.46C66.66 1.88 66.41 1.28 65.96 0.829999C65.49 0.349999 64.86 0.109999 64.18 0.149999Z" fill="#66CC00"/>
<path d="M55.97 9.6L10.54 19.37L8.78 24.09L56.11 12.58L56.19 12.56V9.56L55.97 9.6Z" fill="#4B286D"/>
</svg>