<svg width="512" height="512" viewBox="0 0 512 512" fill="none" xmlns="http://www.w3.org/2000/svg">
<mask id="mask0_6_5" style="mask-type:luminance" maskUnits="userSpaceOnUse" x="107" y="116" width="106" height="107">
<path d="M167.8 214.4L212.1 222.6L211.2 221.2L210.4 219.8L209.5 218.3L208.6 216.9L207.7 215.5L206.9 214.1L206 212.7L205.2 211.4L204.3 210L203.5 208.6L202.6 207.2L201.8 205.9L201 204.5L200.1 203.2L199.3 201.8L198.5 200.5L197.7 199.1L196.8 197.8L196 196.5L195.2 195.2L194.4 193.9L193.6 192.6L192.8 191.3L192 190L191.2 188.7L190.4 187.4L189.6 186.1L188.9 184.8L188.1 183.6L187.3 182.3L186.5 181.1L185.8 179.8L185 178.7L184.3 177.5L183.6 176.3L182.9 175.2L182.2 174L181.5 172.9L180.8 171.7L180.1 170.6L179.4 169.5L178.7 168.4L178 167.2L177.3 166.1L176.6 165L175.9 163.9L175.3 162.8L174.6 161.7L173.9 160.6L173.2 159.5L172.6 158.4L171.9 157.3L171.2 156.2L170.6 155.1L169.9 154.1L169.3 153L168.6 151.9L167.9 150.9L167.3 149.8L166.6 148.8L166 147.7L165.4 146.7L164.7 145.6L164.1 144.6L107.8 116.9L108.6 118.1L109.4 119.4L110.2 120.8L111 122.1L111.8 123.4L112.6 124.7L113.4 126L115.1 128.7L118.4 134.1L120.9 138.2L122.6 141L123.5 142.4L124.3 143.8L126.1 146.6L126.9 148L127.8 149.4L129.5 152.2L130.4 153.7L131.3 155.1L133.1 158L134 159.4L134.9 160.9L136.8 164L137.8 165.6L138.8 167.2L139.7 168.8L140.7 170.4L141.7 172L142.7 173.6L143.7 175.2L144.7 176.8L145.7 178.4L146.7 180.1L147.7 181.7L148.7 183.4L150.8 186.7L151.8 188.4L152.9 190.1L154.9 193.4L156 195.1L157 196.9L158.1 198.6L160.2 202L161.3 203.8L162.4 205.5L163.5 207.3L164.5 209L165.6 210.8L166.7 212.6L167.8 214.4Z" fill="white"/>
</mask>
<g mask="url(#mask0_6_5)">
<path d="M167.8 214.4L212.1 222.6L211.2 221.2L210.4 219.8L209.5 218.3L208.6 216.9L207.7 215.5L206.9 214.1L206 212.7L205.2 211.4L204.3 210L203.5 208.6L202.6 207.2L201.8 205.9L201 204.5L200.1 203.2L199.3 201.8L198.5 200.5L197.7 199.1L196.8 197.8L196 196.5L195.2 195.2L194.4 193.9L193.6 192.6L192.8 191.3L192 190L191.2 188.7L190.4 187.4L189.6 186.1L188.9 184.8L188.1 183.6L187.3 182.3L186.5 181.1L185.8 179.8L185 178.7L184.3 177.5L183.6 176.3L182.9 175.2L182.2 174L181.5 172.9L180.8 171.7L180.1 170.6L179.4 169.5L178.7 168.4L178 167.2L177.3 166.1L176.6 165L175.9 163.9L175.3 162.8L174.6 161.7L173.9 160.6L173.2 159.5L172.6 158.4L171.9 157.3L171.2 156.2L170.6 155.1L169.9 154.1L169.3 153L168.6 151.9L167.9 150.9L167.3 149.8L166.6 148.8L166 147.7L165.4 146.7L164.7 145.6L164.1 144.6L107.8 116.9L108.6 118.1L109.4 119.4L110.2 120.8L111 122.1L111.8 123.4L112.6 124.7L113.4 126L114.3 127.4L118.4 134.1L126.1 146.6L126.9 148L127.8 149.4L128.7 150.8L129.5 152.2L130.4 153.7L131.3 155.1L132.2 156.5L133.1 158L134 159.4L134.9 160.9L135.9 162.4L136.8 164L137.8 165.6L138.8 167.2L139.7 168.8L140.7 170.4L141.7 172L142.7 173.6L143.7 175.2L144.7 176.8L145.7 178.4L146.7 180.1L147.7 181.7L148.7 183.4L149.8 185L150.8 186.7L151.8 188.4L152.9 190.1L153.9 191.7L154.9 193.4L156 195.1L157 196.9L158.1 198.6L159.2 200.3L160.2 202L161.3 203.8L162.4 205.5L163.5 207.3L164.5 209L165.6 210.8L166.7 212.6L167.8 214.4Z" fill="#FEFEFE" stroke="#020202" stroke-miterlimit="10"/>
</g>
<mask id="mask1_6_5" style="mask-type:luminance" maskUnits="userSpaceOnUse" x="100" y="277" width="86" height="114">
<path d="M100.7 390.8L158.4 363.7L158.8 362.5L159.2 361.3L159.6 360L160 358.8L160.4 357.6L160.7 356.3L161.1 355.1L161.5 353.9L161.9 352.6L162.3 351.4L162.7 350.1L163.1 348.9L163.5 347.6L163.9 346.4L164.3 345.1L164.7 343.8L165.1 342.6L165.6 341.3L166 340L166.4 338.7L166.8 337.5L167.2 336.2L167.6 334.9L168 333.6L168.4 332.3L168.8 331L169.2 329.7L169.7 328.4L170.1 327.1L170.5 325.8L170.9 324.5L171.3 323.2L171.8 321.8L172.2 320.4L172.7 319L173.1 317.6L173.5 316.3L174 314.9L174.4 313.5L174.9 312.1L175.3 310.7L175.8 309.3L176.2 307.8L176.7 306.4L177.1 305L177.6 303.6L178 302.2L178.5 300.7L179 299.3L179.4 297.9L179.9 296.4L180.3 295L180.8 293.5L181.3 292.1L181.7 290.6L182.2 289.2L182.7 287.7L183.1 286.3L183.6 284.8L184.1 283.3L184.5 281.8L185 280.4L185.5 278.9L186 277.4L135.1 282.8L134.6 284.7L134 286.5L133.4 288.4L132.8 290.2L132.2 292.1L131.6 293.9L131 295.8L130.4 297.6L129.8 299.4L129.3 301.2L128.7 303L128.1 304.8L127.5 306.7L127 308.5L126.4 310.2L125.8 312L125.2 313.8L124.7 315.6L124.1 317.4L123.5 319.2L123 320.9L122.4 322.7L121.8 324.4L121.3 326.2L120.7 327.9L120.2 329.7L119.6 331.4L119.1 333.2L118.5 334.9L118 336.6L117.4 338.3L116.9 340L116.3 341.7L115.8 343.3L115.3 345L114.8 346.6L114.2 348.2L113.7 349.9L113.2 351.5L112.7 353.1L112.2 354.7L111.7 356.3L111.2 357.9L110.6 359.5L110.1 361.1L109.6 362.7L109.1 364.3L108.6 365.9L108.1 367.5L107.6 369.1L107.1 370.6L106.6 372.2L106.1 373.8L105.6 375.3L105.1 376.9L104.6 378.4L104.1 380L103.6 381.5L103.1 383.1L102.6 384.6L101.2 389.2L100.7 390.8Z" fill="white"/>
</mask>
<g mask="url(#mask1_6_5)">
<path d="M100.7 390.8L158.4 363.7L158.8 362.5L159.2 361.3L159.6 360L160 358.8L160.4 357.6L160.7 356.3L161.1 355.1L161.5 353.9L161.9 352.6L162.3 351.4L162.7 350.1L163.1 348.9L163.5 347.6L163.9 346.4L164.3 345.1L164.7 343.8L165.1 342.6L165.6 341.3L166 340L166.4 338.7L166.8 337.5L167.2 336.2L167.6 334.9L168 333.6L168.4 332.3L168.8 331L169.2 329.7L169.7 328.4L170.1 327.1L170.5 325.8L170.9 324.5L171.3 323.2L171.8 321.8L172.2 320.4L172.7 319L173.1 317.6L173.5 316.3L174 314.9L174.4 313.5L174.9 312.1L175.3 310.7L175.8 309.3L176.2 307.8L176.7 306.4L177.1 305L177.6 303.6L178 302.2L178.5 300.7L179 299.3L179.4 297.9L179.9 296.4L180.3 295L180.8 293.5L181.3 292.1L181.7 290.6L182.2 289.2L182.7 287.7L183.1 286.3L183.6 284.8L184.1 283.3L184.5 281.8L185 280.4L185.5 278.9L186 277.4L135.1 282.8L134.6 284.7L134 286.5L133.4 288.4L132.8 290.2L132.2 292.1L131.6 293.9L131 295.8L130.4 297.6L129.8 299.4L129.3 301.2L128.7 303L128.1 304.8L127.5 306.7L127 308.5L126.4 310.2L125.8 312L125.2 313.8L124.7 315.6L124.1 317.4L123.5 319.2L123 320.9L122.4 322.7L121.8 324.4L121.3 326.2L120.7 327.9L120.2 329.7L119.6 331.4L119.1 333.2L118.5 334.9L118 336.6L117.4 338.3L116.9 340L116.3 341.7L115.8 343.3L115.3 345L114.8 346.6L114.2 348.2L113.7 349.9L113.2 351.5L112.7 353.1L112.2 354.7L111.7 356.3L111.2 357.9L110.6 359.5L110.1 361.1L109.6 362.7L109.1 364.3L108.6 365.9L108.1 367.5L107.6 369.1L107.1 370.6L106.6 372.2L106.1 373.8L105.6 375.3L105.1 376.9L104.6 378.4L104.1 380L103.6 381.5L103.1 383.1L102.6 384.6L102.2 386.2L101.7 387.7L101.2 389.2L100.7 390.8Z" fill="#FEFEFE" stroke="#020202" stroke-miterlimit="10"/>
</g>
<path d="M255.6 43C238 51.8 221.6 60 206.7 67.5C192.8 74.4 179.9 80.9 167.9 86.9C167.9 108.2 167.9 129.5 167.9 150.7C167.9 171.9 167.9 193.2 167.9 214.4C156.1 195.4 145.2 177.5 134.9 160.9C125.3 145.3 116.3 130.7 107.8 116.9C97.8 121.9 88.4 126.6 79.7 131C71.5 135.1 63.9 138.9 56.7 142.5C63.1 154 69.8 166 76.9 178.8C84.4 192.3 92.5 206.7 101 222.1C92.1 250.5 83.7 277 75.8 301.9C68.4 325.1 61.5 347.1 55 367.9C61.5 371.1 68.4 374.6 75.7 378.3C83.5 382.2 91.8 386.4 100.7 390.8C105.9 374.6 111.3 357.7 116.9 340.1C122.7 321.8 128.8 302.8 135.2 282.9C145.4 301.4 156.2 321.1 167.9 342.3C167.9 369.7 167.9 397.1 167.9 424.4C179.9 430.4 192.8 436.9 206.7 443.8C221.7 451.3 238 459.4 255.6 468.2C255.6 397.4 255.6 326.5 255.6 255.7C255.6 184.8 255.6 113.9 255.6 43Z" fill="#2B2A29"/>
<path d="M390.7 241.4L336.9 244.2H337.9L338.9 244.1L339.8 244H340.6L341.5 243.9L342.3 243.8L343.1 243.7L343.8 243.6L344.5 243.4L345.2 243.3L345.8 243.2L346.4 243L347 242.9L347.6 242.7L348.1 242.6L348.6 242.4L349.1 242.2L349.5 242L349.9 241.8L350.3 241.6L350.7 241.4L351.1 241.2L351.5 241L351.8 240.8L352.2 240.5L352.6 240.3L352.9 240L353.3 239.8L353.6 239.5L353.9 239.3L354.3 239L354.6 238.7L354.9 238.4L355.2 238.1L355.5 237.8L355.8 237.5L356.1 237.2L356.4 236.8L356.7 236.5L357 236.1L357.2 235.8L357.5 235.4L357.8 235.1L358 234.7L358.3 234.3L358.5 233.9L358.8 233.5L359 233.1L359.2 232.7L359.4 232.3L359.6 231.9L359.8 231.4L360 231L360.2 230.6L360.4 230.2L360.6 229.7L360.7 229.3L360.9 228.8L361.1 228.4L361.2 227.9L361.3 227.5L361.5 227L361.6 226.5L361.7 226L361.9 225.6L362 225.1L362.1 224.6L362.2 224.1V223.6L362.3 223.1L362.4 222.6L362.5 222.1V221.5L362.6 221V220.5L362.7 219.9V219.4L362.8 218.8V218.3V217.7V217.1V216.6V215.9V215.2V214.5L362.7 213.8V213.1L362.6 212.4V211.8L362.5 211.1L362.4 210.4L362.3 209.8V209.1L362.1 208.5L362 207.9L361.9 207.2L361.8 206.6L361.6 206L361.5 205.3L361.3 204.7L361.1 204.1L361 203.5L360.8 202.9L360.6 202.3L360.4 201.7L360.1 201.1L359.9 200.6L359.7 200L359.4 199.4L359.2 198.9L358.9 198.3L358.6 197.7L358.3 197.2L358 196.6L357.7 196.1L357.4 195.5L357.1 195L356.8 194.4L356.4 193.9L356.1 193.4L355.7 192.9L355.4 192.4L355 191.9L354.6 191.4L354.3 190.9L353.9 190.5L353.5 190L353.1 189.6L352.7 189.1L352.3 188.7L351.9 188.3L351.5 187.8L351 187.4L350.6 187L350.2 186.7L349.7 186.3L349.3 185.9L348.8 185.5L348.4 185.2L347.9 184.8L347.4 184.5L346.9 184.2L346.4 183.8L345.9 183.5L345.4 183.2L344.9 182.9L344.5 182.7L344.1 182.5L343.6 182.2L343.1 182L342.6 181.7L342 181.5L341.5 181.2L340.8 180.9L340.2 180.7L339.5 180.4L338.8 180.1L338.1 179.8L337.4 179.5L336.6 179.2L335.7 178.8L334.9 178.5L334 178.2L333.1 177.8L332.2 177.5L331.2 177.1L330.2 176.7L329.1 176.4L328 176L326.9 175.6L325.8 175.2L324.6 174.8L323.4 174.3L322.2 173.9L320.9 173.5L319.6 173L318.2 172.6L316.9 172.1L316.2 171.9L315.5 171.7L314.8 171.5L314.1 171.2L313.4 171L312.7 170.8L312.1 170.5L311.4 170.3L310.7 170.1L309.9 169.9L309.2 169.6L308.5 169.4L307.8 169.1L307.1 168.9L306.4 168.7L305.7 168.4L304.9 168.2L304.2 168L303.5 167.7L302.8 167.5L302 167.2L301.3 167L300.6 166.7L299.8 166.5L299.1 166.2L298.3 166L297.6 165.8L296.8 165.5L296.1 165.3L295.3 165L294.5 164.8L293.8 164.5L336.7 141.7L337.7 142L338.6 142.4L339.6 142.7L340.5 143L341.5 143.3L342.4 143.6L343.4 143.9L344.3 144.2L345.2 144.5L346.1 144.8L347.1 145.1L348 145.5L348.9 145.8L349.8 146.1L350.7 146.4L351.6 146.7L352.5 147L353.4 147.2L354.3 147.5L355.2 147.8L356.1 148.1L357 148.4L357.8 148.7L358.7 149L359.6 149.3L360.5 149.6L361.3 149.9L362.2 150.2L363 150.4L363.9 150.7L364.7 151L365.6 151.3L367.3 151.9L369 152.4L370.6 153L372.2 153.5L373.8 154L375.3 154.6L376.8 155.1L378.2 155.6L379.6 156.1L380.9 156.5L382.2 157L383.5 157.5L384.7 157.9L385.9 158.4L387 158.8L388.1 159.2L389.2 159.6L390.2 160.1L391.2 160.4L392.2 160.8L393.1 161.2L393.9 161.6L394.8 161.9L395.6 162.3L396.3 162.6L397.1 163L397.8 163.3L398.4 163.6L399 163.9L399.6 164.2L400.1 164.5L400.7 164.8L401.3 165.1L401.9 165.5L402.6 165.9L403.2 166.3L403.8 166.7L404.4 167.2L405 167.6L405.5 168L406.1 168.5L406.7 169L407.2 169.4L407.8 169.9L408.3 170.4L408.9 170.9L409.4 171.4L409.9 172L410.4 172.5L410.9 173.1L411.4 173.6L411.9 174.2L412.4 174.8L412.8 175.4L413.3 176L413.7 176.6L414.2 177.2L414.6 177.9L415 178.5L415.5 179.2L415.9 179.8L416.3 180.5L416.7 181.2L417.1 181.9L417.4 182.6L417.8 183.3L418.1 184L418.5 184.7L418.8 185.4L419.1 186.1L419.4 186.8L419.7 187.5L420 188.3L420.2 189L420.5 189.8L420.7 190.5L420.9 191.3L421.2 192L421.4 192.8L421.6 193.6L421.7 194.3L421.9 195.1L422.1 195.9L422.2 196.7L422.3 197.5L422.5 198.3L422.6 199.2L422.7 200L422.8 200.8V201.7L422.9 202.5V203.4L423 204.2V205.1V205.9V206.8V207.5V208.2V209V209.6L422.9 210.3V211L422.8 211.7V212.4L422.7 213L422.6 213.7L422.5 214.3L422.4 215L422.3 215.6L422.2 216.2L422.1 216.8L422 217.5L421.8 218.1L421.7 218.7L421.5 219.3L421.4 219.9L421.2 220.4L421 221L420.8 221.6L420.6 222.1L420.4 222.7L420.2 223.3L420 223.8L419.8 224.3L419.6 224.9L419.3 225.4L419.1 225.9L418.8 226.4L418.5 227L418.2 227.5L418 228L417.7 228.5L417.4 229L417.1 229.5L416.7 229.9L416.4 230.4L416.1 230.8L415.7 231.3L415.4 231.7L415 232.1L414.7 232.6L414.3 233L413.9 233.3L413.6 233.7L413.2 234.1L412.8 234.5L412.4 234.8L412 235.2L411.5 235.5L411.1 235.8L410.7 236.2L410.2 236.5L409.8 236.8L409.3 237.1L408.9 237.3L408.4 237.6L407.9 237.9L407.4 238.1L406.9 238.4L406.4 238.6L405.9 238.9L405.3 239.1L404.7 239.3L404 239.5L403.3 239.7L402.6 239.9L401.8 240.1L401 240.2L400.2 240.4L399.3 240.6L398.3 240.7L397.4 240.8L396.4 240.9L395.3 241.1L394.2 241.2H393.1L391.9 241.3L390.7 241.4Z" fill="#2B2A29"/>
<mask id="mask2_6_5" style="mask-type:luminance" maskUnits="userSpaceOnUse" x="255" y="43" width="202" height="426">
<path d="M255.6 468.2C255.6 397.4 255.6 326.5 255.6 255.7C255.6 184.9 255.6 113.9 255.6 43C280.7 55.6 303.1 66.7 323.1 76.8C341.1 85.8 357.3 93.9 372.1 101.3C387.3 108.9 398.8 115.1 407.3 119.9C415.2 124.5 420.8 128.2 424.2 131.2C434.2 139.8 441.9 151.2 447.8 165.5C453.4 179.1 456.2 194.6 456.2 212.5C456.2 226.3 454.6 237.7 451.4 247.1C448.1 256.7 443.9 264.5 438.5 270.5C432.9 276.8 426.8 281.3 420.4 283.9C415.9 285.7 410 287.3 402.9 288.8C395.3 290.4 386 291.9 374.7 293.3C363 294.7 350.4 296.3 336.7 298C336.7 319.6 336.7 341.3 336.7 362.9C336.7 384.5 336.7 406.1 336.7 427.7C325.4 433.3 313.3 439.4 300.3 445.9C286.5 452.7 271.5 460.2 255.6 468.2Z" fill="white"/>
</mask>
<g mask="url(#mask2_6_5)">
<path d="M255.8 467.5C255.8 396.7 255.8 326.8 255.8 256C255.8 185.2 255.8 114.4 255.8 43.5C280.9 56.1 303.3 68.1 323.3 78.1C341.3 87.1 357.5 95.2 372.3 102.6C387.5 110.2 399 116.4 407.5 121.2C415.4 125.8 420 129.5 423.4 132.5C433.4 141.1 441.1 151.5 447 165.8C452.6 179.4 455.4 194.9 455.4 212.8C455.4 226.6 453.8 238 450.6 247.4C447.3 257 443.1 263.8 437.7 269.8C432.1 276.1 427 280.6 420.6 283.2C416.1 285 410.2 286.6 403.1 288.1C395.5 289.7 386.2 291.2 374.9 292.6C363.2 294 349.6 295.6 335.9 297.3C335.9 318.9 335.9 341.6 335.9 363.2C335.9 384.8 335.9 405.4 335.9 427C324.6 432.6 313.5 438.7 300.5 445.2C286.7 452.1 271.8 459.5 255.8 467.5ZM336.9 143.2C336.9 159.5 336.9 174.8 336.9 191.1C336.9 207.4 336.9 223.8 336.9 240.1C348.5 240.6 359.2 241.1 369.3 241.6C389.1 242.5 400.9 241.5 406.6 239C412 236.5 416.1 232.5 419 226.8C421.8 221.3 423.2 214.9 423.2 207.2C423.2 197.8 421.2 189.5 417.2 182.3C413 174.7 407.7 169 400.8 165.2C395.5 162.2 384.4 157.9 365.7 151.7C356.7 148.7 347 145.5 336.8 142.1L336.9 143.2Z" fill="#FEFEFE" stroke="#020202" stroke-miterlimit="22.9256"/>
</g>
</svg>
