<svg viewBox="0 0 147 126" fill="none" xmlns="http://www.w3.org/2000/svg"><path d="M140.708 96.7107c-7.81 4.0703-48.2904 20.7203-57.0004 25.2903C74.9976 126.571 70.3176 126.441 63.4976 123.191s-49.8-20.73-57.57002-24.4403C2.04758 96.9007.00756836 95.3407.00756836 93.8607V79.0508S56.0876 66.8807 65.1376 63.6107 77.3176 60.2406 85.0276 63.0606C92.7376 65.8806 138.798 74.2007 146.408 76.9807V91.5606C146.408 93.0806 144.658 94.5606 140.668 96.6907L140.708 96.7107z" fill="#a32422"></path><path d="M140.708 81.9108C132.898 85.9808 92.4176 102.631 83.7076 107.121 74.9976 111.611 70.3176 111.561 63.4976 108.321c-6.82-3.24-49.8-20.6703-57.57001-24.3703-7.77-3.7-7.92999-6.27-.30999-9.25s50.47-19.78 59.52-23S77.3176 48.3408 85.0276 51.1708C92.7376 54.0008 132.968 70.0108 140.578 72.7908 148.188 75.5708 148.488 77.8808 140.668 81.9208L140.708 81.9108z" fill="#dc382c"></path><path d="M140.708 72.5807C132.898 76.6507 92.4176 93.3008 83.7076 97.7908 74.9976 102.281 70.3176 102.231 63.4976 98.9907 56.6776 95.7507 13.6976 78.3407 5.92758 74.6207 2.04758 72.7707.00756836 71.2007.00756836 69.7207V54.9306S56.0876 42.7607 65.1376 39.4707 77.3176 36.1107 85.0276 38.9407C92.7376 41.7707 138.798 50.0607 146.408 52.8507v14.64C146.488 68.9607 144.698 70.4907 140.708 72.5807z" fill="#a32422"></path><path d="M140.708 57.7808c-7.81 4.08-48.2904 20.7099-57.0004 25.1999S70.3176 87.4407 63.4976 84.1807s-49.8-20.65-57.57001-24.36C-1.84241 56.1107-2.0024 53.5607 5.6176 50.5807s50.47-19.78 59.52-23S77.3176 24.2208 85.0276 27.0308C92.7376 29.8408 132.968 45.9508 140.578 48.6608 148.188 51.3708 148.488 53.7408 140.668 57.7908L140.708 57.7808z" fill="#dc382c"></path><path d="M140.708 47.5508c-7.81 4.08-48.2904 20.73-57.0004 25.22C74.9976 77.2608 70.3176 77.2107 63.4976 73.9507 56.6776 70.6907 13.6976 53.3007 5.92758 49.5907c-3.88-1.84-5.92001164-3.41-5.92001164-4.89V29.9008S56.0876 17.7207 65.1376 14.4507c9.05-3.27 12.18-3.3599 19.89-.549899999999999C92.7376 16.7108 138.798 25.0407 146.408 27.8307V42.4208C146.488 43.9408 144.698 45.4908 140.708 47.5508z" fill="#a32422"></path><path d="M140.708 32.7607c-7.81 4-48.2904 20.7599-57.0004 25.1999s-13.39 4.4401-20.21 1.2001-49.8-20.66-57.57001-24.36c-7.77-3.7-7.92999-6.27-.30999-9.26 7.62-2.99 50.47-19.77998 59.52-22.99998 9.05-3.219996 12.18-3.360025 19.89-.53003C92.7376 4.84069 132.968 20.8507 140.578 23.6407 148.188 26.4307 148.488 28.7207 140.668 32.7707L140.708 32.7607z" fill="#dc382c"></path><path d="M140.708 96.7107c-7.81 4.0703-48.2904 20.7203-57.0004 25.2903C74.9976 126.571 70.3176 126.441 63.4976 123.191s-49.8-20.73-57.57002-24.4403C2.04758 96.9007.00756836 95.3407.00756836 93.8607V79.0508S56.0876 66.8807 65.1376 63.6107 77.3176 60.2406 85.0276 63.0606C92.7376 65.8806 138.798 74.2007 146.408 76.9807V91.5606C146.408 93.0806 144.658 94.5606 140.668 96.6907L140.708 96.7107z" fill="#a32422"></path><path d="M140.708 81.9108C132.898 85.9808 92.4176 102.631 83.7076 107.121 74.9976 111.611 70.3176 111.561 63.4976 108.321c-6.82-3.24-49.8-20.6703-57.57001-24.3703-7.77-3.7-7.92999-6.27-.30999-9.25s50.47-19.78 59.52-23S77.3176 48.3408 85.0276 51.1708C92.7376 54.0008 132.968 70.0108 140.578 72.7908 148.188 75.5708 148.488 77.8808 140.668 81.9208L140.708 81.9108z" fill="#dc382c"></path><path d="M140.708 72.5807C132.898 76.6507 92.4176 93.3008 83.7076 97.7908 74.9976 102.281 70.3176 102.231 63.4976 98.9907 56.6776 95.7507 13.6976 78.3407 5.92758 74.6207 2.04758 72.7707.00756836 71.2007.00756836 69.7207V54.9306S56.0876 42.7607 65.1376 39.4707 77.3176 36.1107 85.0276 38.9407C92.7376 41.7707 138.798 50.0607 146.408 52.8507v14.64C146.488 68.9607 144.698 70.4907 140.708 72.5807z" fill="#a32422"></path><path d="M140.708 57.7808c-7.81 4.08-48.2904 20.7099-57.0004 25.1999S70.3176 87.4407 63.4976 84.1807s-49.8-20.65-57.57001-24.36C-1.84241 56.1107-2.0024 53.5607 5.6176 50.5807s50.47-19.78 59.52-23S77.3176 24.2208 85.0276 27.0308C92.7376 29.8408 132.968 45.9508 140.578 48.6608 148.188 51.3708 148.488 53.7408 140.668 57.7908L140.708 57.7808z" fill="#dc382c"></path><path d="M140.708 47.5508c-7.81 4.08-48.2904 20.73-57.0004 25.22C74.9976 77.2608 70.3176 77.2107 63.4976 73.9507 56.6776 70.6907 13.6976 53.3007 5.92758 49.5907c-3.88-1.84-5.92001164-3.41-5.92001164-4.89V29.9008S56.0876 17.7207 65.1376 14.4507c9.05-3.27 12.18-3.3599 19.89-.549899999999999C92.7376 16.7108 138.798 25.0407 146.408 27.8307V42.4208C146.488 43.9408 144.698 45.4908 140.708 47.5508z" fill="#a32422"></path><path d="M140.708 32.7607c-7.81 4-48.2904 20.7599-57.0004 25.1999s-13.39 4.4401-20.21 1.2001-49.8-20.66-57.57001-24.36c-7.77-3.7-7.92999-6.27-.30999-9.26 7.62-2.99 50.47-19.77998 59.52-22.99998 9.05-3.219996 12.18-3.360025 19.89-.53003C92.7376 4.84069 132.968 20.8507 140.578 23.6407 148.188 26.4307 148.488 28.7207 140.668 32.7707L140.708 32.7607z" fill="#dc382c"></path><path d="M75.5476 11.7307l9.66-3.17-2.62 6.26 9.83 3.68-12.67 1.32L76.8976 26.6607l-4.58-7.63-14.65-1.32 10.94-3.94L65.3176 7.71069l10.23 4.02001z" fill="#fff"></path><path d="M76.1575 51.6607l-23.68-9.83 33.92-5.2-10.24 15.03z" fill="#fff"></path><path d="M43.3276 22.3008c10 0 18.12 3.15 18.12 7s-8.14 7-18.12 7c-9.98.0-18.14-3.15000000000001-18.14-7s8.13-7 18.14-7z" fill="#fff"></path><path d="M107.428 20.3707l20.07 7.93-20.05 7.93L107.428 20.3707z" fill="#741113"></path><path d="M107.428 20.3707 107.448 36.2307 105.268 37.0807l-20.0605-7.93 22.2205-8.78z" fill="#ac2724"></path></svg>